<svg width="25" height="32" viewBox="0 0 25 32" fill="black" xmlns="http://www.w3.org/2000/svg">
<path d="M22.5 0C23.0563 0 23.5875 0.23075 23.9625 0.636875C24.3438 1.04312 24.5375 1.58875 24.4938 2.1425L22.6938 27.3563C22.5063 29.975 20.3313 32 17.7063 32H7.29377C4.67002 32 2.49315 29.975 2.30627 27.3563L0.505084 2.1425C0.485514 1.86851 0.522577 1.59343 0.613966 1.3344C0.705354 1.07536 0.849108 0.837924 1.03627 0.636875C1.22347 0.435934 1.45005 0.275688 1.70187 0.166118C1.9537 0.0565487 2.22539 2.00025e-06 2.50002 0L22.5 0Z" fill="#0098FF"/>
</svg>
