<svg width="181" height="74" viewBox="0 0 181 74" fill="none" xmlns="http://www.w3.org/2000/svg">
<g clip-path="url(#clip0_177_1630)">
<path d="M21.3467 5.06909H32.1887C37.1451 5.06909 39.6233 7.53323 40.5526 8.76529L29.7105 19.5459L21.3467 5.06909Z" fill="black"/>
<path d="M0.901611 14.9256V24.1661L7.09708 18.0058L1.21138 39.567H11.7437L12.1309 38.0269L20.4173 5.06909L11.7437 5.06909L0.901611 14.9256Z" fill="black"/>
<path d="M11.7437 39.567H25.0639L35.906 30.0184C37.1451 33.2013 40.9243 39.567 46.1285 39.567H58.8292L47.0578 19.5459L63.1661 5.06909L47.6774 5.06909L12.1309 38.0269L11.7437 39.567Z" fill="black"/>
<path d="M67.3179 39.8477L64.3058 4.37545H76.9825L79.102 34.3242H72.7376L90.0766 4.37545H101.397L103.412 34.3242H97.3085L114.491 4.37545H126.177L105.818 39.8477H92.6192L90.9998 15.3212H94.5472L80.5163 39.8477H67.3179Z" fill="#0098FF"/>
<path d="M114.308 39.4898L124.749 22.8081H127.141L132.042 39.4898H129.505L125.227 24.1427H126.194L116.797 39.4898H114.308ZM118.265 35.3194L119.236 33.4129H128.755L129.137 35.3194H118.265ZM137.073 39.4898L139.51 24.8814H133.712L134.058 22.8081H148.046L147.7 24.8814H141.902L139.465 39.4898H137.073ZM151.676 30.0051H160.373L160.036 32.0307H151.338L151.676 30.0051ZM150.657 37.4165H160.514L160.168 39.4898H147.895L150.678 22.8081H162.613L162.267 24.8814H152.748L150.657 37.4165ZM164.08 39.4898L166.863 22.8081H173.459C174.941 22.8081 176.167 23.0385 177.137 23.4992C178.107 23.96 178.801 24.6272 179.219 25.501C179.637 26.3748 179.745 27.4154 179.544 28.6229C179.342 29.8303 178.887 30.8709 178.177 31.7447C177.47 32.6026 176.555 33.262 175.431 33.7227C174.308 34.1834 173.005 34.4138 171.523 34.4138H166.256L167.526 33.3176L166.497 39.4898H164.08ZM175.387 39.4898L172.097 33.4367H174.682L178.021 39.4898H175.387ZM167.486 33.5559L166.594 32.3882H171.788C173.335 32.3882 174.557 32.0625 175.455 31.4111C176.371 30.7438 176.929 29.8144 177.128 28.6229C177.326 27.4313 177.077 26.5099 176.381 25.8585C175.7 25.2071 174.587 24.8814 173.04 24.8814H167.846L169.132 23.6899L167.486 33.5559Z" fill="black"/>
</g>
<path d="M66.6842 66.9016L69.3298 50.1977H76.4571C78.261 50.1977 79.7921 50.5477 81.0503 51.2477C82.3247 51.9477 83.2408 52.926 83.7988 54.1828C84.3728 55.4396 84.5289 56.8952 84.2668 58.5497C84.0048 60.2042 83.3877 61.6598 82.4155 62.9166C81.4594 64.1733 80.2333 65.1517 78.7373 65.8517C77.2574 66.5517 75.6154 66.9016 73.8114 66.9016H66.6842ZM69.429 64.8256H73.9953C75.3966 64.8256 76.6462 64.5631 77.744 64.0381C78.858 63.5131 79.7712 62.7813 80.4836 61.8427C81.1985 60.8882 81.6543 59.7906 81.8508 58.5497C82.0498 57.2929 81.9418 56.1952 81.5268 55.2566C81.1117 54.318 80.4303 53.5862 79.4826 53.0613C78.551 52.5363 77.3846 52.2738 75.9833 52.2738H71.417L69.429 64.8256ZM86.6446 66.9016L89.2903 50.1977H95.886C97.3678 50.1977 98.5957 50.4284 99.5696 50.8898C100.543 51.3511 101.243 52.0193 101.668 52.8942C102.093 53.7692 102.21 54.8112 102.019 56.0202C101.827 57.2293 101.38 58.2713 100.678 59.1463C99.9781 60.0053 99.0682 60.6655 97.9482 61.1269C96.8282 61.5882 95.5272 61.8189 94.0454 61.8189H88.7785L90.0396 60.7212L89.0607 66.9016H86.6446ZM97.9516 66.9016L94.6111 60.8405H97.1962L100.585 66.9016H97.9516ZM90.0018 60.9598L89.0997 59.7906H94.2942C95.8404 59.7906 97.0598 59.4644 97.9524 58.8122C98.8635 58.144 99.4136 57.2134 99.6026 56.0202C99.7916 54.8271 99.535 53.9044 98.833 53.2522C98.1471 52.5999 97.031 52.2738 95.4847 52.2738H90.2903L91.5665 51.0807L90.0018 60.9598ZM104.199 66.9016L106.844 50.1977H109.26L106.615 66.9016H104.199ZM111.678 66.9016L114.323 50.1977H116.305L125.318 63.9188H124.279L126.452 50.1977H128.868L126.222 66.9016H124.241L115.228 53.1806H116.267L114.094 66.9016H111.678ZM134.049 62.8688L134.389 59.9576L145.527 50.1977H148.281L139.639 57.9293L138.052 59.4088L134.049 62.8688ZM131.284 66.9016L133.93 50.1977H136.346L133.7 66.9016H131.284ZM143.268 66.9016L137.596 58.9315L139.495 57.1657L146.095 66.9016H143.268Z" fill="black"/>
<defs>
<clipPath id="clip0_177_1630">
<rect width="181" height="42.8172" fill="white" transform="translate(0 0.216309)"/>
</clipPath>
</defs>
</svg>
