<svg width="115" height="41" viewBox="0 0 115 41" fill="none" xmlns="http://www.w3.org/2000/svg">
<g clip-path="url(#clip0_87_806)">
<path d="M13.3104 3.49316H19.6268C22.5142 3.49316 23.958 4.92267 24.4993 5.63743L18.183 11.8915L13.3104 3.49316Z" fill="black"/>
<path d="M1.39964 9.2112V14.5718L5.00897 10.9981L1.58011 23.5063H7.71597L7.94155 22.6128L12.769 3.49316L7.71597 3.49316L1.39964 9.2112Z" fill="black"/>
<path d="M7.71597 23.5063H15.476L21.7924 17.9669C22.5142 19.8134 24.7159 23.5063 27.7477 23.5063H35.1469L28.2891 11.8915L37.6734 3.49316H28.6501L7.94155 22.6128L7.71597 23.5063Z" fill="black"/>
<path d="M34.4357 24.3049L39.4268 3.89248H50.6541C53.556 3.89248 55.5739 4.39793 56.7076 5.40883C57.8461 6.40029 58.2252 7.67364 57.8449 9.22887C57.593 10.2592 57.067 11.1826 56.2669 11.9991C55.4917 12.7962 54.4866 13.428 53.2518 13.8946C52.017 14.3611 50.579 14.5944 48.938 14.5944L49.9234 13.0197C51.5645 13.0197 52.9207 13.2433 53.9922 13.6904C55.0836 14.1376 55.845 14.7888 56.2763 15.6442C56.7323 16.4801 56.8153 17.491 56.5254 18.6769C56.0928 20.446 54.9948 21.8263 53.2314 22.8177C51.488 23.8092 49.1653 24.3049 46.2634 24.3049H34.4357ZM42.5767 19.4934H46.8395C47.62 19.4934 48.2337 19.3573 48.6805 19.0852C49.1473 18.813 49.4449 18.4145 49.5732 17.8896C49.7015 17.3647 49.5989 16.9662 49.2651 16.694C48.9514 16.4218 48.4043 16.2857 47.6238 16.2857H42.8807L43.993 11.7367H47.7755C48.576 11.7367 49.1873 11.6103 49.6093 11.3576C50.0561 11.0854 50.3389 10.7063 50.4578 10.2203C50.5814 9.71488 50.4839 9.33579 50.1655 9.08307C49.867 8.83034 49.3176 8.70398 48.517 8.70398H45.2149L42.5767 19.4934ZM67.2755 11.4742H76.6417L75.4295 16.4315H66.0634L67.2755 11.4742ZM65.8877 19.1143H76.3946L75.1255 24.3049H57.654L62.6451 3.89248H79.7263L78.4571 9.08307H68.3405L65.8877 19.1143ZM82.4158 24.3049L86.1021 9.22887H79.948L81.2529 3.89248H100.646L99.3407 9.22887H93.1867L89.5004 24.3049H82.4158Z" fill="#0098FF"/>
</g>
<path d="M14.3272 38.0083L11.4003 29.2526H12.6886L15.3779 37.3329H14.7274L17.5168 29.2526H18.6675L21.3943 37.3329H20.7689L23.4957 29.2526H24.684L21.757 38.0083H20.4437L17.892 30.5159H18.2297L15.6656 38.0083H14.3272ZM24.6073 38.0083L28.5724 29.2526H29.8107L33.7883 38.0083H32.4749L28.9351 29.953H29.4354L25.8956 38.0083H24.6073ZM26.2959 35.8194L26.6336 34.8187H31.5618L31.9245 35.8194H26.2959ZM36.3933 38.0083V30.3408H33.3913V29.2526H40.6336V30.3408H37.6316V38.0083H36.3933ZM43.1341 33.03H47.6371V34.0932H43.1341V33.03ZM43.2467 36.9201H48.3501V38.0083H41.9959V29.2526H48.1749V30.3408H43.2467V36.9201ZM50.3754 38.0083V29.2526H53.7901C54.5573 29.2526 55.2119 29.3735 55.7539 29.6153C56.2959 29.8571 56.7129 30.2074 57.0047 30.666C57.2966 31.1246 57.4425 31.6708 57.4425 32.3046C57.4425 32.9383 57.2966 33.4845 57.0047 33.9431C56.7129 34.3934 56.2959 34.7395 55.7539 34.9813C55.2119 35.2231 54.5573 35.3441 53.7901 35.3441H51.0634L51.6262 34.7687V38.0083H50.3754ZM56.2292 38.0083L54.0028 34.8312H55.3412L57.5926 38.0083H56.2292ZM51.6262 34.8938L51.0634 34.2809H53.7526C54.5531 34.2809 55.1577 34.1099 55.5663 33.768C55.9832 33.4178 56.1917 32.93 56.1917 32.3046C56.1917 31.6792 55.9832 31.1955 55.5663 30.8536C55.1577 30.5117 54.5531 30.3408 53.7526 30.3408H51.0634L51.6262 29.7154V34.8938ZM62.8225 38.0083V29.2526H66.5124C67.4464 29.2526 68.2678 29.436 68.9766 29.8029C69.6937 30.1698 70.2482 30.6827 70.6401 31.3414C71.0404 32.0002 71.2405 32.7632 71.2405 33.6304C71.2405 34.4977 71.0404 35.2607 70.6401 35.9194C70.2482 36.5782 69.6937 37.091 68.9766 37.4579C68.2678 37.8248 67.4464 38.0083 66.5124 38.0083H62.8225ZM64.0733 36.9201H66.4374C67.1629 36.9201 67.7883 36.7825 68.3136 36.5073C68.8473 36.2321 69.2601 35.8486 69.5519 35.3566C69.8438 34.8562 69.9897 34.2809 69.9897 33.6304C69.9897 32.9717 69.8438 32.3963 69.5519 31.9043C69.2601 31.4123 68.8473 31.0287 68.3136 30.7535C67.7883 30.4784 67.1629 30.3408 66.4374 30.3408H64.0733V36.9201ZM73.1564 38.0083V29.2526H76.5712C77.3383 29.2526 77.9929 29.3735 78.535 29.6153C79.077 29.8571 79.4939 30.2074 79.7858 30.666C80.0776 31.1246 80.2236 31.6708 80.2236 32.3046C80.2236 32.9383 80.0776 33.4845 79.7858 33.9431C79.4939 34.3934 79.077 34.7395 78.535 34.9813C77.9929 35.2231 77.3383 35.3441 76.5712 35.3441H73.8444L74.4073 34.7687V38.0083H73.1564ZM79.0103 38.0083L76.7838 34.8312H78.1222L80.3737 38.0083H79.0103ZM74.4073 34.8938L73.8444 34.2809H76.5337C77.3342 34.2809 77.9387 34.1099 78.3473 33.768C78.7643 33.4178 78.9728 32.93 78.9728 32.3046C78.9728 31.6792 78.7643 31.1955 78.3473 30.8536C77.9387 30.5117 77.3342 30.3408 76.5337 30.3408H73.8444L74.4073 29.7154V34.8938ZM82.2444 38.0083V29.2526H83.4952V38.0083H82.2444ZM86.1166 38.0083V29.2526H87.1423L92.9336 36.4448H92.3957V29.2526H93.6465V38.0083H92.6209L86.8296 30.8161H87.3674V38.0083H86.1166ZM97.368 35.8944L97.3055 34.3684L102.271 29.2526H103.697L99.8571 33.3052L99.1567 34.0807L97.368 35.8944ZM96.2673 38.0083V29.2526H97.5181V38.0083H96.2673ZM102.471 38.0083L98.8815 33.8306L99.7195 32.905L103.935 38.0083H102.471Z" fill="black"/>
<defs>
<clipPath id="clip0_87_806">
<rect width="113.199" height="25.0164" fill="white" transform="translate(0.900417 0.991699)"/>
</clipPath>
</defs>
</svg>
